<?xml version="1.0" standalone="no"?><!DOCTYPE svg PUBLIC "-//W3C//DTD SVG 1.1//EN" "http://www.w3.org/Graphics/SVG/1.1/DTD/svg11.dtd"><svg class="icon" height="512" viewBox="0 0 1024 1024" version="1.1" xmlns="http://www.w3.org/2000/svg"><path d="M828.928 408.064c-1.536-14.848-9.216-28.16-20.48-37.888L547.84 161.28c-23.552-18.432-60.416-14.848-78.848 8.704l-58.88 73.216c-9.216 11.776-13.824 26.112-12.288 41.472 1.536 14.848 8.704 28.16 20.48 37.888l20.48 16.384 41.472 33.28-271.872 324.608c-9.216 10.24-14.336 23.552-13.824 37.376 0.512 13.824 6.656 26.624 16.896 36.352l53.248 49.152c10.752 9.728 24.576 14.848 39.424 13.824 13.312-1.024 25.6-6.656 34.816-16.896l280.064-334.336 40.448 32.256 20.48 16.384c9.728 8.192 22.528 12.288 35.328 12.288 16.896 0 33.28-7.68 44.032-20.992l58.88-73.216c7.68-11.264 12.288-26.112 10.752-40.96z m-445.44 166.912l32.768-38.912 67.072 20.992-32.256 38.912-67.584-20.992z m28.16 67.584l-28.672 33.792-67.584-20.48 28.672-34.304 67.584 20.992z m-111.616 133.12l-47.616-44.032 24.064-29.184 67.584 20.48-44.032 52.736z m222.72-265.728l-67.072-20.992 68.608-82.432 50.688 40.448-52.224 62.976z m191.488-22.528l-260.096-209.408 58.88-73.216 260.096 209.408-58.88 73.216z" /></svg>